<?xml version="1.0" standalone="no"?>
<!DOCTYPE svg PUBLIC "-//W3C//DTD SVG 20010904//EN"
 "http://www.w3.org/TR/2001/REC-SVG-20010904/DTD/svg10.dtd">
<svg version="1.0" xmlns="http://www.w3.org/2000/svg"
 width="256.000000pt" height="256.000000pt" viewBox="0 0 256.000000 256.000000"
 preserveAspectRatio="xMidYMid meet">
<metadata>
Created by potrace 1.16, written by Peter Selinger 2001-2019
</metadata>
<g transform="translate(0.000000,256.000000) scale(0.100000,-0.100000)"
fill="#000000" stroke="none">
<path d="M299 2271 l-29 -29 0 -962 0 -962 29 -29 29 -29 952 0 952 0 29 29
29 29 0 962 0 962 -29 29 -29 29 -952 0 -952 0 -29 -29z m1942 -20 c18 -22 19
-54 19 -972 0 -936 0 -949 -20 -969 -20 -20 -33 -20 -960 -20 -927 0 -940 0
-960 20 -20 20 -20 33 -20 968 0 1027 -2 986 53 994 12 2 438 3 945 3 l924 0
19 -24z"/>
<path d="M1245 1606 c-9 -6 -19 -25 -23 -41 -8 -29 -10 -30 -84 -36 -101 -8
-151 -34 -221 -113 -52 -59 -61 -65 -109 -71 -69 -10 -108 -47 -108 -103 0
-22 -7 -55 -15 -75 -30 -72 18 -127 110 -127 31 0 45 -4 45 -14 0 -7 7 -19 15
-26 29 -24 14 -30 -70 -30 -50 0 -85 -4 -85 -10 0 -7 215 -10 625 -10 410 0
625 3 625 10 0 6 -35 10 -86 10 -47 0 -84 3 -82 8 32 64 28 62 90 62 49 0 63
4 83 25 26 25 32 69 16 110 -7 16 -10 9 -16 -30 -10 -67 -18 -75 -80 -75 -51
0 -52 1 -68 40 -41 104 -183 104 -224 0 l-16 -40 -242 0 -242 0 -16 40 c-41
104 -183 104 -224 0 -15 -38 -18 -40 -60 -40 -30 0 -49 6 -63 20 -24 24 -26
63 -5 80 10 8 15 30 15 61 0 30 6 53 16 63 8 9 17 16 18 16 2 0 27 5 57 10 49
9 60 17 124 84 52 56 80 77 110 85 22 6 116 11 208 11 197 0 194 1 307 -104
l78 -73 98 -18 c55 -10 116 -24 138 -31 35 -13 37 -13 25 2 -18 22 -49 33
-156 54 l-92 18 -81 73 c-98 89 -117 100 -190 106 -56 5 -58 6 -69 43 -12 41
-47 57 -76 36z m347 -601 l18 -35 -285 0 c-157 0 -285 4 -285 9 0 5 7 14 15
21 8 7 15 19 15 26 0 12 45 14 253 14 l252 0 17 -35z"/>
<path d="M1066 1447 c-49 -28 -86 -89 -70 -114 10 -16 35 -18 290 -21 153 -1
285 0 293 3 19 8 -91 122 -136 141 -23 10 -76 14 -185 14 -140 0 -156 -2 -192
-23z m194 -41 c0 -19 3 -41 6 -50 5 -14 -9 -16 -120 -16 -130 0 -136 2 -115
41 21 41 69 59 152 59 l77 0 0 -34z m219 -8 c27 -24 50 -47 50 -51 1 -4 -52
-6 -116 -5 l-118 3 -3 48 -3 47 70 0 c68 0 72 -1 120 -42z"/>
<path d="M1100 1206 c0 -19 5 -26 20 -26 13 0 20 -7 20 -20 0 -15 7 -20 25
-20 18 0 25 5 25 20 0 13 7 20 20 20 13 0 20 -7 20 -20 0 -15 7 -20 25 -20 18
0 25 5 25 20 0 13 7 20 20 20 13 0 20 -7 20 -20 0 -13 7 -20 20 -20 13 0 20 7
20 20 0 13 7 20 20 20 13 0 20 -7 20 -20 0 -15 7 -20 25 -20 18 0 25 5 25 20
0 13 7 20 20 20 13 0 20 -7 20 -20 0 -15 7 -20 25 -20 18 0 25 5 25 20 0 13 7
20 20 20 15 0 20 7 20 26 0 21 -4 25 -22 22 -15 -2 -24 -11 -26 -26 -4 -30
-36 -25 -40 6 -5 30 -39 30 -44 0 -4 -31 -36 -36 -40 -6 -2 15 -11 24 -25 26
-19 3 -23 -1 -23 -22 0 -19 -5 -26 -20 -26 -15 0 -20 7 -20 26 0 21 -4 25 -22
22 -15 -2 -24 -11 -26 -26 -4 -30 -36 -25 -40 6 -2 14 -10 22 -22 22 -12 0
-20 -8 -22 -22 -4 -31 -36 -36 -40 -6 -2 15 -11 24 -25 26 -19 3 -23 -1 -23
-22z"/>
</g>
</svg>
